<svg width="24" height="37" viewBox="0 0 24 37" fill="none" xmlns="http://www.w3.org/2000/svg">
<path d="M8.4523 36.6353C9.85683 36.6353 10.9954 35.7338 10.9954 34.6217C10.9954 33.5096 9.85683 32.608 8.4523 32.608C7.04777 32.608 5.90918 33.5096 5.90918 34.6217C5.90918 35.7338 7.04777 36.6353 8.4523 36.6353Z" fill="#EE24FF"/>
<path d="M13.2633 0.0594425C10.1257 -0.2208 6.97601 0.497361 4.50711 2.05594C2.03821 3.61451 0.45236 5.88583 0.0984334 8.37023C-0.638581 13.5437 2.80361 24.7781 9.07941 29.4287C12.0344 20.5186 22.3891 15.2336 23.7593 10.4835C25.2233 5.40793 19.7971 0.643019 13.2633 0.0594425Z" fill="#EE24FF"/>
<path d="M12.038 11.2656C14.1824 11.2656 15.9207 9.88918 15.9207 8.19123C15.9207 6.49328 14.1824 5.11682 12.038 5.11682C9.89358 5.11682 8.15521 6.49328 8.15521 8.19123C8.15521 9.88918 9.89358 11.2656 12.038 11.2656Z" fill="white"/>
</svg>
